<svg preserveAspectRatio="none" width="100%" height="100%" overflow="visible" style="display: block;" viewBox="0 0 71 78" fill="none" xmlns="http://www.w3.org/2000/svg">
<g id="v_de_color" clip-path="url(#clip0_0_25)">
<path id="Vector" d="M47.6298 33.5771L50.3099 33.941C52.3047 34.2091 54.1387 32.8112 54.4067 30.8158L57.6305 6.9401C57.8985 4.94471 56.501 3.11018 54.5062 2.84209L51.8261 2.47825C49.8313 2.21015 47.9974 3.60807 47.7294 5.60346L44.5056 29.4791C44.2376 31.4745 45.6351 33.309 47.6298 33.5771Z" fill="#B683EA"/>
<path id="Vector_2" d="M70.4793 34.4233C69.8935 33.2973 68.9057 32.6155 67.7839 32.313C66.2179 31.8879 64.3916 32.2019 63.0362 33.056C60.4174 34.7067 59.2228 37.8625 58.4954 40.7273C57.3391 45.2734 57.3123 50.0225 56.0986 54.5571C54.7853 59.4402 51.6496 63.4195 47.304 66.0009C46.9173 66.2307 46.5267 66.4452 46.1286 66.652C42.0892 68.7278 37.3722 69.781 32.862 68.9116C24.546 67.3145 18.7187 59.6088 15.8931 52.0906C13.4771 45.6602 11.5398 39.0498 9.27319 32.5696C8.92094 31.5585 8.5687 30.5512 8.21263 29.5401C8.15137 29.3716 8.09394 29.1993 8.03268 29.0307C7.33585 27.043 5.70098 25.8557 4.00868 25.9132C3.52243 25.9285 3.03236 26.0511 2.56142 26.2809C0.436475 27.3188 -0.562823 30.2295 0.329271 32.7879C0.520707 33.3317 0.712144 33.8756 0.899752 34.4233C1.36686 35.7599 1.83396 37.0965 2.30107 38.4332C2.89069 40.1183 3.48032 41.8035 4.06994 43.4887C4.62511 45.0781 5.1841 46.6675 5.73927 48.2569C6.65816 50.8842 7.78381 53.4349 8.9822 55.9474C11.2565 60.7041 13.3623 65.4302 17.2255 69.1338C20.5373 72.3087 24.5766 74.7407 28.8686 76.3416C37.9198 79.7158 48.3377 77.8391 55.8727 71.8109C60.1609 68.3793 62.9635 63.5536 64.763 58.4291C66.0418 54.7946 66.9339 51.0336 68.1361 47.3684C69.0359 44.63 70.1117 41.9414 70.7128 39.1226C71.0498 37.5561 71.2182 35.8442 70.4755 34.4233H70.4793Z" fill="#B683EA"/>
<path id="Vector_3" d="M28.5344 44.7336L27.3686 44.8498C26.5038 44.936 25.8726 45.7071 25.9588 46.5722L26.4526 51.5304C26.5388 52.3954 27.3097 53.0268 28.1745 52.9406L29.3403 52.8244C30.2051 52.7383 30.8363 51.9671 30.7501 51.102L30.2563 46.1439C30.1701 45.2788 29.3992 44.6474 28.5344 44.7336Z" fill="#B683EA"/>
<path id="Vector_4" d="M38.831 47.9314C39.099 48.3756 39.5317 48.6437 39.9988 48.7203L45.1599 50.1412C46.0673 50.3902 47.0053 49.8425 47.2312 48.9195C47.4456 48.0271 46.8637 47.1347 45.9792 46.8934L44.2716 46.4224C44.2716 46.4224 44.2525 46.3994 44.2678 46.3917L45.7151 45.4189C46.4387 44.9325 46.7297 43.9636 46.3162 43.1976C45.8376 42.3167 44.7196 42.0563 43.9079 42.6001L39.3862 45.6411C38.6357 46.1466 38.3639 47.1577 38.831 47.9314Z" fill="#B683EA"/>
<path id="Vector_5" d="M28.2024 59.6815C28.2828 59.6815 28.5164 59.9496 28.5815 60.0071C28.7308 60.1373 28.8801 60.2637 29.0294 60.3939C29.2209 60.5586 29.4123 60.7156 29.6152 60.865C29.9292 61.0948 30.2546 61.3092 30.5877 61.5084C31.4186 62.0025 32.3068 62.3931 33.2334 62.6689C35.1746 63.2433 37.2382 63.2548 39.2024 62.7761C41.4039 62.2399 43.4867 61.2097 45.1637 59.6739C46.1247 58.793 46.9326 57.7551 47.5528 56.6099C48.0889 55.618 48.7091 54.2852 47.6141 53.4158C47.5069 53.3315 47.3959 53.2626 47.281 53.209C46.4999 52.8451 45.516 53.1209 44.957 53.7796C44.6813 54.1013 44.5358 54.4843 44.3329 54.8558C43.2532 56.8282 41.3656 58.3257 39.2215 58.973C38.8501 59.0841 38.4673 59.1721 38.0844 59.2373C35.8676 59.6126 33.5741 59.1109 31.721 57.8317C31.1697 57.4487 30.7332 57.0044 30.2776 56.518C29.8641 56.0738 29.2821 55.7405 28.6542 55.8248C27.9 55.9282 27.2031 56.4759 27.0385 57.238C26.916 57.8125 27.0806 58.433 27.429 58.9041C27.6473 59.2028 27.9306 59.4441 28.2101 59.6854L28.2024 59.6815Z" fill="#B683EA"/>
<path id="Vector_6" d="M15.0125 32.3091C15.7437 34.9709 18.4928 36.5335 21.1537 35.802C23.8147 35.0705 25.3768 32.3206 24.6455 29.6588L22.7886 22.899L29.1366 21.1526L30.2163 28.6746C30.6069 31.4053 33.1415 33.3049 35.8714 32.9104C38.6013 32.5198 40.5003 29.9844 40.106 27.2537L36.8094 4.28567C36.4189 1.55494 33.8843 -0.344692 31.1544 0.0497889C28.4245 0.44044 26.5293 2.97584 26.9198 5.70657L28.2063 14.6686L21.0657 16.6333L19.1551 9.69351C18.4239 7.03172 15.6748 5.46912 13.0139 6.20063C10.3529 6.93214 8.79077 9.68202 9.52206 12.3438L15.0125 32.3053V32.3091Z" fill="#B683EA"/>
</g>
<defs>
<clipPath id="clip0_0_25">
<rect width="71" height="78" fill="white"/>
</clipPath>
</defs>
</svg>
